<svg width="118" height="118" viewBox="0 0 118 118" fill="none" xmlns="http://www.w3.org/2000/svg">
<path d="M83.584 44.25H39.334V34.4167H83.584V44.25ZM34.4173 34.4167H24.584V44.25H34.4173V34.4167ZM34.4173 19.6667H24.584V29.5H34.4173V19.6667ZM49.1673 19.6667H39.334V29.5H49.1673V19.6667ZM63.9173 83.5834V93.4167H68.834C71.5382 93.4167 73.7506 95.6292 73.7506 98.3334H108.167V108.167H73.7506C73.7506 110.871 71.5382 113.083 68.834 113.083H49.1673C46.4632 113.083 44.2506 110.871 44.2506 108.167H9.83398V98.3334H44.2506C44.2506 95.6292 46.4632 93.4167 49.1673 93.4167H54.084V83.5834H19.6673C14.2098 83.5834 9.83398 79.2075 9.83398 73.75V14.75C9.83398 12.1421 10.87 9.64091 12.7141 7.7968C14.5582 5.9527 17.0594 4.91669 19.6673 4.91669H98.334C103.791 4.91669 108.167 9.29252 108.167 14.75V73.75C108.167 79.2075 103.791 83.5834 98.334 83.5834H63.9173ZM98.334 73.75V14.75H19.6673V73.75H98.334ZM54.084 29.5H93.4173V19.6667H54.084V29.5ZM24.584 59H54.084V49.1667H24.584V59ZM63.9173 68.8334H93.4173V59H63.9173V68.8334Z" fill="#0F75BC"/>
</svg>
