<svg width="130" height="130" viewBox="0 0 130 130" fill="none" xmlns="http://www.w3.org/2000/svg">
<path opacity="0.2" d="M113.75 24.375V105.625H16.25V24.375H113.75Z" fill="#0F75BC"/>
<path d="M117.812 24.375V44.6875C117.812 45.7649 117.384 46.7983 116.623 47.5601C115.861 48.322 114.827 48.75 113.75 48.75C112.673 48.75 111.639 48.322 110.877 47.5601C110.116 46.7983 109.688 45.7649 109.688 44.6875V28.4375H93.4375C92.3601 28.4375 91.3267 28.0095 90.5649 27.2476C89.803 26.4858 89.375 25.4524 89.375 24.375C89.375 23.2976 89.803 22.2642 90.5649 21.5024C91.3267 20.7405 92.3601 20.3125 93.4375 20.3125H113.75C114.827 20.3125 115.861 20.7405 116.623 21.5024C117.384 22.2642 117.812 23.2976 117.812 24.375ZM36.5625 101.562H20.3125V85.3125C20.3125 84.2351 19.8845 83.2017 19.1226 82.4399C18.3608 81.678 17.3274 81.25 16.25 81.25C15.1726 81.25 14.1392 81.678 13.3774 82.4399C12.6155 83.2017 12.1875 84.2351 12.1875 85.3125V105.625C12.1875 106.702 12.6155 107.736 13.3774 108.498C14.1392 109.259 15.1726 109.688 16.25 109.688H36.5625C37.6399 109.688 38.6733 109.259 39.4351 108.498C40.197 107.736 40.625 106.702 40.625 105.625C40.625 104.548 40.197 103.514 39.4351 102.752C38.6733 101.991 37.6399 101.562 36.5625 101.562ZM113.75 81.25C112.673 81.25 111.639 81.678 110.877 82.4399C110.116 83.2017 109.688 84.2351 109.688 85.3125V101.562H93.4375C92.3601 101.562 91.3267 101.991 90.5649 102.752C89.803 103.514 89.375 104.548 89.375 105.625C89.375 106.702 89.803 107.736 90.5649 108.498C91.3267 109.259 92.3601 109.688 93.4375 109.688H113.75C114.827 109.688 115.861 109.259 116.623 108.498C117.384 107.736 117.812 106.702 117.812 105.625V85.3125C117.812 84.2351 117.384 83.2017 116.623 82.4399C115.861 81.678 114.827 81.25 113.75 81.25ZM16.25 48.75C17.3274 48.75 18.3608 48.322 19.1226 47.5601C19.8845 46.7983 20.3125 45.7649 20.3125 44.6875V28.4375H36.5625C37.6399 28.4375 38.6733 28.0095 39.4351 27.2476C40.197 26.4858 40.625 25.4524 40.625 24.375C40.625 23.2976 40.197 22.2642 39.4351 21.5024C38.6733 20.7405 37.6399 20.3125 36.5625 20.3125H16.25C15.1726 20.3125 14.1392 20.7405 13.3774 21.5024C12.6155 22.2642 12.1875 23.2976 12.1875 24.375V44.6875C12.1875 45.7649 12.6155 46.7983 13.3774 47.5601C14.1392 48.322 15.1726 48.75 16.25 48.75ZM40.625 40.625C39.5476 40.625 38.5142 41.053 37.7524 41.8149C36.9905 42.5767 36.5625 43.6101 36.5625 44.6875V85.3125C36.5625 86.3899 36.9905 87.4233 37.7524 88.1851C38.5142 88.947 39.5476 89.375 40.625 89.375C41.7024 89.375 42.7358 88.947 43.4976 88.1851C44.2595 87.4233 44.6875 86.3899 44.6875 85.3125V44.6875C44.6875 43.6101 44.2595 42.5767 43.4976 41.8149C42.7358 41.053 41.7024 40.625 40.625 40.625ZM93.4375 85.3125V44.6875C93.4375 43.6101 93.0095 42.5767 92.2476 41.8149C91.4858 41.053 90.4524 40.625 89.375 40.625C88.2976 40.625 87.2642 41.053 86.5024 41.8149C85.7405 42.5767 85.3125 43.6101 85.3125 44.6875V85.3125C85.3125 86.3899 85.7405 87.4233 86.5024 88.1851C87.2642 88.947 88.2976 89.375 89.375 89.375C90.4524 89.375 91.4858 88.947 92.2476 88.1851C93.0095 87.4233 93.4375 86.3899 93.4375 85.3125ZM73.125 40.625C72.0476 40.625 71.0142 41.053 70.2524 41.8149C69.4905 42.5767 69.0625 43.6101 69.0625 44.6875V85.3125C69.0625 86.3899 69.4905 87.4233 70.2524 88.1851C71.0142 88.947 72.0476 89.375 73.125 89.375C74.2024 89.375 75.2358 88.947 75.9976 88.1851C76.7595 87.4233 77.1875 86.3899 77.1875 85.3125V44.6875C77.1875 43.6101 76.7595 42.5767 75.9976 41.8149C75.2358 41.053 74.2024 40.625 73.125 40.625ZM56.875 40.625C55.7976 40.625 54.7642 41.053 54.0024 41.8149C53.2405 42.5767 52.8125 43.6101 52.8125 44.6875V85.3125C52.8125 86.3899 53.2405 87.4233 54.0024 88.1851C54.7642 88.947 55.7976 89.375 56.875 89.375C57.9524 89.375 58.9858 88.947 59.7476 88.1851C60.5095 87.4233 60.9375 86.3899 60.9375 85.3125V44.6875C60.9375 43.6101 60.5095 42.5767 59.7476 41.8149C58.9858 41.053 57.9524 40.625 56.875 40.625Z" fill="#0F75BC"/>
</svg>
