<svg width="120" height="119" viewBox="0 0 120 119" fill="none" xmlns="http://www.w3.org/2000/svg">
<path d="M54.5728 98.5717C55.7214 98.5587 56.8185 98.0932 57.6261 97.2764C58.4337 96.4595 58.8866 95.3571 58.8865 94.2084V71.8959C58.9911 70.2852 58.7641 68.6701 58.2196 67.1506C57.6752 65.6311 56.8248 64.2395 55.721 63.0617C54.6172 61.884 53.2836 60.9452 51.8026 60.3034C50.3215 59.6617 48.7246 59.3305 47.1105 59.3305C45.4964 59.3305 43.8994 59.6617 42.4184 60.3034C40.9374 60.9452 39.6037 61.884 38.5 63.0617C37.3962 64.2395 36.5458 65.6311 36.0013 67.1506C35.4568 68.6701 35.2299 70.2852 35.3344 71.8959V94.2084C35.2693 94.8171 35.3329 95.4327 35.5213 96.0152C35.7096 96.5977 36.0184 97.134 36.4276 97.5894C36.8368 98.0447 37.3372 98.4089 37.8963 98.6581C38.4555 98.9074 39.0608 99.0362 39.673 99.0362C40.2852 99.0362 40.8905 98.9074 41.4496 98.6581C42.0088 98.4089 42.5092 98.0447 42.9184 97.5894C43.3276 97.134 43.6364 96.5977 43.8247 96.0152C44.013 95.4327 44.0767 94.8171 44.0115 94.2084V84.8867C44.0243 84.5667 44.1606 84.2639 44.3917 84.0421C44.6228 83.8203 44.9308 83.6965 45.2511 83.6967H48.9699C49.2902 83.6965 49.5982 83.8203 49.8293 84.0421C50.0604 84.2639 50.1966 84.5667 50.2094 84.8867V94.2084C50.2094 94.7814 50.3223 95.3488 50.5416 95.8782C50.7609 96.4076 51.0823 96.8886 51.4874 97.2937C51.8926 97.6989 52.3736 98.0203 52.903 98.2396C53.4324 98.4589 53.9998 98.5717 54.5728 98.5717ZM45.2511 74.9701C44.9308 74.9703 44.6228 74.8466 44.3917 74.6247C44.1606 74.4029 44.0243 74.1002 44.0115 73.7801V71.8959C44.1071 71.1415 44.4747 70.4479 45.0452 69.9451C45.6157 69.4423 46.35 69.1649 47.1105 69.1649C47.8709 69.1649 48.6053 69.4423 49.1758 69.9451C49.7463 70.4479 50.1138 71.1415 50.2094 71.8959V73.7801C50.1966 74.1002 50.0604 74.4029 49.8293 74.6247C49.5982 74.8466 49.2902 74.9703 48.9699 74.9701H45.2511ZM103.512 69.4167C103.511 69.3342 103.528 69.2526 103.561 69.177C103.594 69.1013 103.642 69.0334 103.703 68.9775C103.764 68.9215 103.835 68.8788 103.913 68.852C103.991 68.8251 104.074 68.8149 104.156 68.8217H114.073C115.23 68.8217 116.34 68.362 117.158 67.5437C117.976 66.7255 118.436 65.6156 118.436 64.4584C118.436 63.3012 117.976 62.1913 117.158 61.3731C116.34 60.5548 115.23 60.0951 114.073 60.0951H104.156C101.684 60.0951 99.3129 61.0772 97.5647 62.8253C95.8166 64.5735 94.8344 66.9445 94.8344 69.4167V89.2501C94.8344 91.7223 95.8166 94.0933 97.5647 95.8415C99.3129 97.5896 101.684 98.5717 104.156 98.5717H114.073C115.23 98.5717 116.34 98.112 117.158 97.2937C117.976 96.4755 118.436 95.3656 118.436 94.2084C118.436 93.0512 117.976 91.9413 117.158 91.1231C116.34 90.3048 115.23 89.8451 114.073 89.8451H104.156C104.074 89.8519 103.991 89.8416 103.913 89.8148C103.835 89.788 103.764 89.7453 103.703 89.6893C103.642 89.6334 103.594 89.5655 103.561 89.4898C103.528 89.4142 103.511 89.3326 103.512 89.2501V84.8867C103.524 84.5667 103.661 84.2639 103.892 84.0421C104.123 83.8203 104.431 83.6965 104.751 83.6967H109.114C110.272 83.6967 111.382 83.237 112.2 82.4187C113.018 81.6005 113.478 80.4906 113.478 79.3334C113.478 78.1762 113.018 77.0663 112.2 76.2481C111.382 75.4298 110.272 74.9701 109.114 74.9701H104.751C104.431 74.9703 104.123 74.8466 103.892 74.6247C103.661 74.4029 103.524 74.1002 103.512 73.7801V69.4167ZM71.9269 60.0951C70.7697 60.0951 69.6599 60.5548 68.8416 61.3731C68.0233 62.1913 67.5636 63.3012 67.5636 64.4584V89.2501C67.5636 91.7223 68.5457 94.0933 70.2939 95.8415C72.042 97.5896 74.413 98.5717 76.8853 98.5717H86.8019C87.9592 98.5717 89.069 98.112 89.8873 97.2937C90.7056 96.4755 91.1653 95.3656 91.1653 94.2084C91.1653 93.0512 90.7056 91.9413 89.8873 91.1231C89.069 90.3048 87.9592 89.8451 86.8019 89.8451H76.8853C76.8031 89.8519 76.7203 89.8416 76.6423 89.8148C76.5643 89.788 76.4927 89.7453 76.4321 89.6893C76.3715 89.6334 76.3232 89.5655 76.2902 89.4898C76.2573 89.4142 76.2404 89.3326 76.2407 89.2501V64.4584C76.2408 63.3097 75.7879 62.2073 74.9803 61.3905C74.1727 60.5736 73.0756 60.1081 71.9269 60.0951ZM26.6574 87.7626C26.6422 85.9656 26.1812 84.2004 25.3158 82.6254C24.4504 81.0504 23.2077 79.7148 21.699 78.7384L12.7244 72.6892C12.3599 72.4293 12.0864 72.0611 11.9428 71.637C11.7992 71.2128 11.7928 70.7542 11.9245 70.3263C12.0562 69.8983 12.3193 69.5226 12.6764 69.2526C13.0336 68.9825 13.4668 68.8318 13.9144 68.8217H22.3436C23.5008 68.8217 24.6107 68.362 25.429 67.5437C26.2472 66.7255 26.7069 65.6156 26.7069 64.4584C26.7069 63.3012 26.2472 62.1913 25.429 61.3731C24.6107 60.5548 23.5008 60.0951 22.3436 60.0951H13.9144C11.0517 60.1081 8.30991 61.2511 6.28562 63.2754C4.26133 65.2997 3.11832 68.0415 3.10528 70.9042C3.12921 72.6995 3.5939 74.4614 4.45849 76.035C5.32309 77.6085 6.56109 78.9455 8.06361 79.9284L17.1869 85.9776C17.5488 86.2349 17.8212 86.5987 17.9663 87.0183C18.1114 87.4379 18.1219 87.8923 17.9964 88.3181C17.8708 88.744 17.6154 89.12 17.2659 89.3937C16.9163 89.6675 16.4901 89.8252 16.0465 89.8451H7.46861C6.31138 89.8451 5.20155 90.3048 4.38327 91.1231C3.56499 91.9413 3.10528 93.0512 3.10528 94.2084C3.10528 95.3656 3.56499 96.4755 4.38327 97.2937C5.20155 98.112 6.31138 98.5717 7.46861 98.5717H15.8978C18.7559 98.5586 21.4926 97.414 23.509 95.3883C25.5254 93.3626 26.6574 90.6208 26.6574 87.7626ZM106.635 114.042C106.635 112.727 106.113 111.466 105.183 110.536C104.253 109.606 102.992 109.083 101.677 109.083H17.3853C16.0702 109.083 14.8091 109.606 13.8792 110.536C12.9493 111.466 12.4269 112.727 12.4269 114.042C12.4269 115.357 12.9493 116.618 13.8792 117.548C14.8091 118.478 16.0702 119 17.3853 119H101.677C102.992 119 104.253 118.478 105.183 117.548C106.113 116.618 106.635 115.357 106.635 114.042ZM88.0415 27.1717C88.0647 27.0739 88.0647 26.972 88.0415 26.8742C87.4465 24.7917 82.0915 5.40465 80.9015 0.892565C80.817 0.631116 80.6511 0.403516 80.4281 0.242964C80.2052 0.0824115 79.9367 -0.00269275 79.6619 6.4965e-05H64.4894C64.1607 6.4965e-05 63.8454 0.130664 63.6129 0.363131C63.3805 0.595598 63.2499 0.91089 63.2499 1.23965V47.6497C63.2447 47.8862 63.3073 48.1192 63.4303 48.3213C63.5533 48.5234 63.7316 48.686 63.944 48.7901C67.7515 50.6242 71.9786 51.4115 76.1911 51.0709C80.4256 50.7221 84.4945 49.2689 87.9919 46.8563L88.0415 27.1717ZM119.031 25.1388L110.304 4.9584C109.802 3.55435 108.892 2.33231 107.69 1.44892C106.489 0.565521 105.051 0.0610172 103.561 6.4965e-05H89.9257C89.7409 0.00389378 89.5596 0.0506937 89.3961 0.136757C89.2326 0.22282 89.0914 0.345781 88.9836 0.495898C88.8597 0.645566 88.7727 0.822273 88.7296 1.01176C88.6865 1.20124 88.6886 1.3982 88.7357 1.58673L95.3303 25.5355C95.3858 25.8637 95.3858 26.1989 95.3303 26.5271V44.2284C95.3335 44.476 95.4108 44.7169 95.5522 44.9202C95.6936 45.1234 95.8926 45.2797 96.1236 45.3688C98.5998 46.3695 101.281 46.7564 103.939 46.4966C106.598 46.2368 109.153 45.338 111.389 43.8768C113.625 42.4156 115.474 40.4354 116.778 38.1051C118.083 35.7748 118.805 33.1635 118.882 30.4938V26.1305C118.98 25.8089 119.03 25.4748 119.031 25.1388ZM55.8124 1.23965C55.8124 0.91089 55.6818 0.595598 55.4493 0.363131C55.2168 0.130664 54.9015 6.4965e-05 54.5728 6.4965e-05H39.3507C39.0844 0.00766712 38.8271 0.0975557 38.614 0.257373C38.4009 0.417191 38.2425 0.63909 38.1607 0.892565C36.9707 5.40465 31.6157 24.7917 31.0703 26.8742C31.0471 26.972 31.0471 27.0739 31.0703 27.1717V46.1126C31.0633 46.3185 31.1098 46.5227 31.2055 46.7052C31.3011 46.8878 31.4424 47.0423 31.6157 47.1538C35.0168 49.3817 38.919 50.7278 42.9703 51.0709H44.9536C48.4911 51.0794 51.9841 50.2825 55.1678 48.7405C55.3766 48.6319 55.5516 48.4682 55.674 48.2671C55.7964 48.0661 55.8614 47.8354 55.8619 47.6001L55.8124 1.23965ZM23.5832 26.5271C23.5501 26.1974 23.5501 25.8652 23.5832 25.5355L30.2769 1.58673C30.3639 1.41808 30.4093 1.23107 30.4093 1.04131C30.4093 0.851557 30.3639 0.664551 30.2769 0.495898C30.1589 0.344685 30.0087 0.221708 29.8371 0.13593C29.6656 0.050152 29.477 0.00373595 29.2853 6.4965e-05H15.5011C14.0111 0.0610172 12.5733 0.565521 11.3719 1.44892C10.1704 2.33231 9.26019 3.55435 8.75778 4.9584L0.0311116 25.1388C-0.0103705 25.4681 -0.0103705 25.8012 0.0311116 26.1305L0.0311116 30.6426C0.101961 33.7576 1.07713 36.7848 2.83785 39.3554C4.59857 41.9261 7.06884 43.9292 9.94778 45.1209C11.9678 46.0332 14.1521 46.5256 16.3682 46.5683C18.5842 46.6109 20.7859 46.2028 22.8394 45.3688C23.0705 45.2797 23.2695 45.1234 23.4109 44.9202C23.5523 44.7169 23.6296 44.476 23.6328 44.2284L23.5832 26.5271Z" fill="#0F75BC"/>
</svg>
